# xmcd
#
# Track frame offsets:
#	150
#	22767
#	34607
#	50530
#	76720
#	95860
#	110025
#	128390
#	149010
#	163197
#
# Disc length: 2271 seconds
#
# Revision: 0
# Processed by: cddbd v1.5.1PL2 Copyright (c) Steve Scherf et al.
# Submitted via: audiograbber 1.83.01
#
DISCID=7d08dd0a
DTITLE=Muddy Waters and Otin Spann - Collaboration
DYEAR=1995
DGENRE=Blues
TTITLE0=Long Distance Call
TTITLE1=Baby Please Don't Go
TTITLE2=I'm Your Hoochie Coochie Man
TTITLE3=Blues Before Sunrise
TTITLE4=Rolling Stone
TTITLE5=I Can't Be Satisfied
TTITLE6=Blow Wind Blow
TTITLE7=I Feel Like Going Home
TTITLE8=Walking Thru The Park
TTITLE9=Lovin' Stuff (Encore)
EXTD=Tomato is a registered Trademark of The EGGE Company Limited.  For your co
EXTD=mments or additional information regarding Tomato, you can contact us at w
EXTD=ww.theeggecompany.com <http://www.theeggecompany.com>  \n
EXTT0=
EXTT1=
EXTT2=
EXTT3=
EXTT4=
EXTT5=
EXTT6=
EXTT7=
EXTT8=
EXTT9=
PLAYORDER=
